<?xml version="1.0" encoding="UTF-8" standalone="no"?>
<!DOCTYPE svg PUBLIC "-//W3C//DTD SVG 1.1//EN" "http://www.w3.org/Graphics/SVG/1.1/DTD/svg11.dtd">
<svg width="100%" height="100%" viewBox="0 0 512 512" version="1.1" xmlns="http://www.w3.org/2000/svg" xmlns:xlink="http://www.w3.org/1999/xlink" xml:space="preserve" xmlns:serif="http://www.serif.com/" style="fill-rule:evenodd;clip-rule:evenodd;stroke-linecap:round;stroke-linejoin:round;">
    <path d="M388.31,272C436.06,272 478.08,244.23 496,203.08C481.79,209.26 465.1,211.69 448.62,211.69C384.814,211.69 332.31,159.186 332.31,95.38C332.31,78.9 334.74,62.21 340.92,48C299.77,65.92 272,107.94 272,155.69C271.992,165.189 273.147,174.652 275.44,183.87" style="fill:none;fill-rule:nonzero;stroke:white;stroke-width:32px;"/>
    <path d="M90.61,306.85C97.448,305.789 102.868,300.426 104,293.6C116.09,220.17 169.63,176 232,176C289.93,176 328.62,213.75 344.2,253.74C346.234,258.949 350.881,262.708 356.4,263.61C406.4,271.76 448,305.15 448,363.2C448,422.6 399.4,464 340,464L106,464C56.5,464 16,439.3 16,384.8C16,336.33 54.67,312.58 90.61,306.85Z" style="fill:none;fill-rule:nonzero;stroke:white;stroke-width:32px;stroke-linecap:butt;"/>
</svg>
